<?xml version="1.0" standalone="no"?>
<!DOCTYPE svg PUBLIC "-//W3C//DTD SVG 20010904//EN"
 "http://www.w3.org/TR/2001/REC-SVG-20010904/DTD/svg10.dtd">
<svg version="1.0" xmlns="http://www.w3.org/2000/svg"
 width="982.000000pt" height="982.000000pt" viewBox="0 0 982.000000 982.000000"
 preserveAspectRatio="xMidYMid meet">
<metadata>
Created by potrace 1.14, written by Peter Selinger 2001-2017
</metadata>
<g transform="translate(0.000000,982.000000) scale(0.100000,-0.100000)"
fill="#000000" stroke="none">
<path d="M4495 9814 c-80 -7 -389 -53 -530 -80 -1333 -255 -2502 -1063 -3243
-2241 -105 -167 -307 -567 -378 -748 -113 -291 -207 -614 -268 -925 -61 -315
-61 -308 -61 -905 0 -597 0 -590 61 -905 92 -471 229 -876 435 -1290 242 -485
529 -881 929 -1280 605 -605 1350 -1040 2159 -1260 438 -119 845 -173 1311
-172 418 0 771 41 1150 134 880 214 1667 657 2309 1299 835 835 1329 1905
1431 3094 13 156 13 604 0 776 -65 833 -349 1641 -821 2339 -314 464 -733 901
-1176 1227 -719 530 -1602 863 -2443 922 -154 11 -781 21 -865 15z m660 -304
c786 -34 1584 -298 2280 -754 267 -175 410 -292 679 -556 296 -290 435 -455
629 -751 609 -926 866 -2022 727 -3103 -175 -1361 -906 -2529 -2053 -3280
-619 -406 -1290 -647 -2037 -731 -192 -22 -582 -30 -775 -16 -644 46 -1187
196 -1766 486 -488 244 -803 477 -1226 906 -385 391 -601 695 -842 1183 -238
483 -384 977 -447 1516 -8 74 -18 252 -21 395 -8 379 15 645 87 1005 235 1169
900 2187 1880 2877 544 384 1201 654 1860 767 244 42 373 53 770 64 25 1 140
-3 255 -8z"/>
<path d="M4615 9180 c-326 -25 -708 -102 -1027 -206 -1093 -356 -1974 -1112
-2498 -2144 -255 -504 -399 -1015 -440 -1565 -21 -295 -10 -705 26 -960 165
-1160 813 -2205 1799 -2902 528 -374 1307 -667 1945 -733 288 -29 844 -21
1095 16 512 76 1041 258 1490 512 142 80 417 267 550 375 758 611 1262 1396
1495 2325 90 360 114 575 114 1022 -1 445 -20 625 -110 989 -269 1095 -936
2024 -1886 2627 -386 245 -934 467 -1368 554 -351 71 -898 112 -1185 90z m725
-325 c757 -91 1455 -384 2050 -861 159 -127 439 -404 566 -557 481 -584 781
-1275 878 -2022 94 -716 -18 -1457 -321 -2131 -119 -265 -323 -602 -494 -814
-101 -126 -411 -444 -564 -580 -746 -659 -1885 -1024 -2886 -925 -1117 111
-2082 630 -2764 1485 -477 597 -761 1291 -847 2065 -20 181 -17 644 5 825 144
1164 738 2165 1676 2824 543 381 1237 636 1891 695 69 6 143 13 165 15 89 9
519 -4 645 -19z"/>
<path d="M4760 8100 l0 -480 145 0 145 0 0 480 0 480 -145 0 -145 0 0 -480z"/>
<path d="M3188 7937 c-136 -71 -148 -80 -142 -100 7 -22 134 -254 215 -393
l61 -104 32 19 c17 10 75 44 129 75 53 32 97 60 97 64 0 14 -132 246 -207 365
-41 64 -81 117 -88 117 -8 0 -51 -19 -97 -43z"/>
<path d="M6439 7883 c-86 -132 -201 -358 -197 -386 2 -16 32 -39 118 -88 63
-37 118 -64 122 -60 17 15 268 466 268 482 0 19 -39 50 -129 103 -109 63 -108
63 -182 -51z"/>
<path d="M4835 6876 c-161 -34 -173 -43 -186 -148 -9 -80 -71 -809 -93 -1115
-8 -106 -18 -198 -22 -204 -6 -11 -115 -8 -251 8 l-53 5 0 -521 0 -521 120 0
c120 0 120 0 116 -22 -3 -13 -7 -57 -11 -98 -3 -41 -8 -99 -11 -127 l-6 -53
461 0 461 0 0 23 c0 13 -5 95 -11 181 -6 87 -9 160 -6 162 6 6 254 29 892 84
672 58 1019 94 1044 109 19 12 54 172 54 251 1 93 -37 257 -62 264 -25 8 -450
52 -836 86 -508 45 -1085 100 -1122 106 -42 8 -35 -48 -108 849 -25 303 -48
565 -51 583 -8 44 -37 61 -148 89 -103 26 -92 25 -171 9z m110 -553 c26 -281
75 -898 75 -941 0 -25 -1 -25 -67 -18 -38 4 -90 9 -116 13 l-49 6 6 81 c4 45
13 173 21 286 24 327 55 688 66 775 22 164 34 124 64 -202z m50 -1209 c1208
-96 1941 -162 2036 -183 52 -12 63 -23 55 -54 -5 -21 -13 -25 -63 -31 -204
-22 -1208 -109 -1933 -166 -278 -21 -531 -42 -562 -45 l-58 -6 0 262 0 262
108 -7 c59 -4 247 -18 417 -32z m99 -700 c3 -9 6 -31 6 -50 l0 -34 -182 0
c-101 0 -189 4 -196 8 -9 7 -10 15 -3 35 11 29 26 33 161 46 149 14 207 13
214 -5z"/>
<path d="M1891 6656 c-39 -68 -71 -128 -71 -132 0 -5 100 -66 223 -135 268
-153 265 -152 282 -146 18 8 129 233 122 251 -8 20 -455 286 -480 286 -2 0
-36 -56 -76 -124z"/>
<path d="M7580 6640 c-129 -76 -239 -140 -244 -142 -12 -5 115 -228 137 -242
20 -13 165 56 347 164 176 105 164 80 101 204 -53 105 -86 157 -99 155 -4 0
-113 -63 -242 -139z"/>
<path d="M1240 4915 l0 -145 480 0 480 0 0 145 0 145 -480 0 -480 0 0 -145z"/>
<path d="M7610 4915 l0 -145 480 0 480 0 0 145 0 145 -480 0 -480 0 0 -145z"/>
<path d="M7413 3487 c-35 -62 -63 -123 -63 -135 0 -12 9 -29 20 -39 20 -20
444 -263 457 -263 11 0 143 232 143 250 0 8 -21 28 -47 44 -49 29 -444 256
-447 256 0 0 -29 -51 -63 -113z"/>
<path d="M2119 3489 c-203 -119 -289 -176 -289 -196 0 -7 30 -65 66 -129 l66
-115 85 45 c194 104 393 229 393 248 0 53 -102 248 -130 248 -9 0 -95 -46
-191 -101z"/>
<path d="M3240 2353 c-171 -296 -200 -348 -200 -360 0 -13 40 -41 145 -101
106 -60 100 -61 149 16 85 132 237 404 234 420 -3 15 -222 152 -243 152 -6 0
-44 -57 -85 -127z"/>
<path d="M6360 2420 c-58 -34 -112 -67 -120 -75 -12 -13 -7 -29 43 -127 57
-114 172 -313 206 -357 l18 -23 45 20 c59 26 188 111 195 129 8 20 -256 493
-275 493 -4 0 -54 -27 -112 -60z"/>
<path d="M4760 1730 l0 -480 145 0 145 0 0 480 0 480 -145 0 -145 0 0 -480z"/>
</g>
</svg>
